<mxfile host="app.diagrams.net" agent="Mozilla/5.0 (Windows NT 10.0; Win64; x64) AppleWebKit/537.36 (KHTML, like Gecko) Chrome/136.0.0.0 Safari/537.36 Edg/136.0.0.0" version="27.1.1">
  <diagram name="Attack Fact Radial Attribute Tree" id="q_-lGOYedAvFtlHd-RWQ">
    <mxGraphModel dx="1415" dy="836" grid="1" gridSize="10" guides="1" tooltips="1" connect="1" arrows="1" fold="1" page="1" pageScale="1" pageWidth="1169" pageHeight="827" math="0" shadow="0">
      <root>
        <mxCell id="0" />
        <mxCell id="1" parent="0" />
        <mxCell id="cdYikMtL8e22yngnOZnh-1" value="incidents" style="shape=ellipse;whiteSpace=wrap;html=1;fillColor=#f5f5f5;strokeColor=#666666;fontStyle=1" vertex="1" parent="1">
          <mxGeometry x="450" y="450" width="100" height="100" as="geometry" />
        </mxCell>
        <mxCell id="cdYikMtL8e22yngnOZnh-2" value="year" style="shape=ellipse;whiteSpace=wrap;html=1;fillColor=#fff2cc;strokeColor=#d6b656;" vertex="1" parent="1">
          <mxGeometry x="310" y="250" width="40" height="40" as="geometry" />
        </mxCell>
        <mxCell id="cdYikMtL8e22yngnOZnh-3" value="" style="edgeStyle=entityRelationEdgeStyle;rounded=0;html=1;entryX=0.5;entryY=1;entryDx=0;entryDy=0;exitX=0.5;exitY=0;exitDx=0;exitDy=0;" edge="1" parent="1" source="cdYikMtL8e22yngnOZnh-1" target="cdYikMtL8e22yngnOZnh-2">
          <mxGeometry relative="1" as="geometry">
            <mxPoint x="490" y="510" as="sourcePoint" />
            <mxPoint x="460" y="210" as="targetPoint" />
            <Array as="points">
              <mxPoint x="500" y="450" />
              <mxPoint x="500" y="480" />
            </Array>
          </mxGeometry>
        </mxCell>
        <mxCell id="cdYikMtL8e22yngnOZnh-7" value="Location" style="shape=ellipse;whiteSpace=wrap;html=1;fillColor=#d1c5d7;strokeColor=#9673a6;" vertex="1" parent="1">
          <mxGeometry x="570" y="330" width="80" height="30" as="geometry" />
        </mxCell>
        <mxCell id="cdYikMtL8e22yngnOZnh-8" value="" style="edgeStyle=entityRelationEdgeStyle;rounded=0;html=1;" edge="1" parent="1" source="cdYikMtL8e22yngnOZnh-1" target="cdYikMtL8e22yngnOZnh-7">
          <mxGeometry relative="1" as="geometry" />
        </mxCell>
        <mxCell id="cdYikMtL8e22yngnOZnh-9" value="region" style="shape=ellipse;whiteSpace=wrap;html=1;fillColor=#fff2cc;strokeColor=#d6b656;" vertex="1" parent="1">
          <mxGeometry x="950" y="120" width="60" height="60" as="geometry" />
        </mxCell>
        <mxCell id="cdYikMtL8e22yngnOZnh-10" value="" style="edgeStyle=entityRelationEdgeStyle;rounded=0;html=1;" edge="1" parent="1" source="cdYikMtL8e22yngnOZnh-7" target="cdYikMtL8e22yngnOZnh-9">
          <mxGeometry relative="1" as="geometry" />
        </mxCell>
        <mxCell id="cdYikMtL8e22yngnOZnh-11" value="country" style="shape=ellipse;whiteSpace=wrap;html=1;fillColor=#fff2cc;strokeColor=#d6b656;" vertex="1" parent="1">
          <mxGeometry x="930" y="60" width="60" height="60" as="geometry" />
        </mxCell>
        <mxCell id="cdYikMtL8e22yngnOZnh-12" value="" style="edgeStyle=entityRelationEdgeStyle;rounded=0;html=1;exitX=1;exitY=0.5;exitDx=0;exitDy=0;" edge="1" parent="1" target="cdYikMtL8e22yngnOZnh-11" source="cdYikMtL8e22yngnOZnh-7">
          <mxGeometry relative="1" as="geometry">
            <mxPoint x="650" y="370" as="sourcePoint" />
          </mxGeometry>
        </mxCell>
        <mxCell id="cdYikMtL8e22yngnOZnh-13" value="provstate" style="shape=ellipse;whiteSpace=wrap;html=1;fillColor=#fff2cc;strokeColor=#d6b656;" vertex="1" parent="1">
          <mxGeometry x="790" y="10" width="60" height="60" as="geometry" />
        </mxCell>
        <mxCell id="cdYikMtL8e22yngnOZnh-14" value="" style="edgeStyle=entityRelationEdgeStyle;rounded=0;html=1;exitX=1;exitY=0.5;exitDx=0;exitDy=0;" edge="1" parent="1" target="cdYikMtL8e22yngnOZnh-13" source="cdYikMtL8e22yngnOZnh-7">
          <mxGeometry relative="1" as="geometry">
            <mxPoint x="650" y="370" as="sourcePoint" />
          </mxGeometry>
        </mxCell>
        <mxCell id="cdYikMtL8e22yngnOZnh-15" value="city" style="shape=ellipse;whiteSpace=wrap;html=1;fillColor=#fff2cc;strokeColor=#d6b656;" vertex="1" parent="1">
          <mxGeometry x="890" width="60" height="60" as="geometry" />
        </mxCell>
        <mxCell id="cdYikMtL8e22yngnOZnh-16" value="latitude" style="shape=ellipse;whiteSpace=wrap;html=1;fillColor=#fff2cc;strokeColor=#d6b656;" vertex="1" parent="1">
          <mxGeometry x="940" y="200" width="60" height="60" as="geometry" />
        </mxCell>
        <mxCell id="cdYikMtL8e22yngnOZnh-17" value="" style="edgeStyle=entityRelationEdgeStyle;rounded=0;html=1;" edge="1" parent="1" source="cdYikMtL8e22yngnOZnh-7" target="cdYikMtL8e22yngnOZnh-16">
          <mxGeometry relative="1" as="geometry" />
        </mxCell>
        <mxCell id="cdYikMtL8e22yngnOZnh-18" value="longitude" style="shape=ellipse;whiteSpace=wrap;html=1;fillColor=#fff2cc;strokeColor=#d6b656;" vertex="1" parent="1">
          <mxGeometry x="940" y="280" width="60" height="60" as="geometry" />
        </mxCell>
        <mxCell id="cdYikMtL8e22yngnOZnh-19" value="" style="edgeStyle=entityRelationEdgeStyle;rounded=0;html=1;" edge="1" parent="1" source="cdYikMtL8e22yngnOZnh-7" target="cdYikMtL8e22yngnOZnh-18">
          <mxGeometry relative="1" as="geometry" />
        </mxCell>
        <mxCell id="cdYikMtL8e22yngnOZnh-20" value="specificity" style="shape=ellipse;whiteSpace=wrap;html=1;fillColor=#fff2cc;strokeColor=#d6b656;" vertex="1" parent="1">
          <mxGeometry x="820" y="450" width="60" height="40" as="geometry" />
        </mxCell>
        <mxCell id="cdYikMtL8e22yngnOZnh-21" value="" style="edgeStyle=entityRelationEdgeStyle;rounded=0;html=1;" edge="1" parent="1" source="cdYikMtL8e22yngnOZnh-7" target="cdYikMtL8e22yngnOZnh-20">
          <mxGeometry relative="1" as="geometry" />
        </mxCell>
        <mxCell id="cdYikMtL8e22yngnOZnh-22" value="vicinity" style="shape=ellipse;whiteSpace=wrap;html=1;fillColor=#fff2cc;strokeColor=#d6b656;" vertex="1" parent="1">
          <mxGeometry x="940" y="350" width="60" height="60" as="geometry" />
        </mxCell>
        <mxCell id="cdYikMtL8e22yngnOZnh-23" value="" style="edgeStyle=entityRelationEdgeStyle;rounded=0;html=1;" edge="1" parent="1" source="cdYikMtL8e22yngnOZnh-7" target="cdYikMtL8e22yngnOZnh-22">
          <mxGeometry relative="1" as="geometry" />
        </mxCell>
        <mxCell id="cdYikMtL8e22yngnOZnh-24" value="unknown_location" style="shape=ellipse;whiteSpace=wrap;html=1;fillColor=#fff2cc;strokeColor=#d6b656;" vertex="1" parent="1">
          <mxGeometry x="930" y="430" width="80" height="20" as="geometry" />
        </mxCell>
        <mxCell id="cdYikMtL8e22yngnOZnh-25" value="" style="edgeStyle=entityRelationEdgeStyle;rounded=0;html=1;" edge="1" parent="1" source="cdYikMtL8e22yngnOZnh-7" target="cdYikMtL8e22yngnOZnh-24">
          <mxGeometry relative="1" as="geometry" />
        </mxCell>
        <mxCell id="cdYikMtL8e22yngnOZnh-26" value="Attack" style="shape=ellipse;whiteSpace=wrap;html=1;fillColor=#d1c5d7;strokeColor=#9673a6;" vertex="1" parent="1">
          <mxGeometry x="700" y="490" width="60" height="60" as="geometry" />
        </mxCell>
        <mxCell id="cdYikMtL8e22yngnOZnh-27" value="" style="edgeStyle=entityRelationEdgeStyle;rounded=0;html=1;" edge="1" parent="1" source="cdYikMtL8e22yngnOZnh-1" target="cdYikMtL8e22yngnOZnh-26">
          <mxGeometry relative="1" as="geometry" />
        </mxCell>
        <mxCell id="cdYikMtL8e22yngnOZnh-28" value="attacktype1" style="shape=ellipse;whiteSpace=wrap;html=1;fillColor=#fff2cc;strokeColor=#d6b656;" vertex="1" parent="1">
          <mxGeometry x="950" y="490" width="70" height="30" as="geometry" />
        </mxCell>
        <mxCell id="cdYikMtL8e22yngnOZnh-29" value="" style="edgeStyle=entityRelationEdgeStyle;rounded=0;html=1;" edge="1" parent="1" source="cdYikMtL8e22yngnOZnh-26" target="cdYikMtL8e22yngnOZnh-28">
          <mxGeometry relative="1" as="geometry" />
        </mxCell>
        <mxCell id="cdYikMtL8e22yngnOZnh-30" value="weaptype1" style="shape=ellipse;whiteSpace=wrap;html=1;fillColor=#fff2cc;strokeColor=#d6b656;" vertex="1" parent="1">
          <mxGeometry x="920" y="585" width="60" height="35" as="geometry" />
        </mxCell>
        <mxCell id="cdYikMtL8e22yngnOZnh-31" value="" style="edgeStyle=entityRelationEdgeStyle;rounded=0;html=1;" edge="1" parent="1" target="cdYikMtL8e22yngnOZnh-30">
          <mxGeometry relative="1" as="geometry">
            <mxPoint x="800" y="520" as="sourcePoint" />
            <Array as="points">
              <mxPoint x="780" y="520" />
            </Array>
          </mxGeometry>
        </mxCell>
        <mxCell id="cdYikMtL8e22yngnOZnh-32" value="Target" style="shape=ellipse;whiteSpace=wrap;html=1;fillColor=#d1c5d7;strokeColor=#9673a6;" vertex="1" parent="1">
          <mxGeometry x="680" y="600" width="50" height="40" as="geometry" />
        </mxCell>
        <mxCell id="cdYikMtL8e22yngnOZnh-33" value="" style="edgeStyle=entityRelationEdgeStyle;rounded=0;html=1;" edge="1" parent="1" source="cdYikMtL8e22yngnOZnh-1" target="cdYikMtL8e22yngnOZnh-32">
          <mxGeometry relative="1" as="geometry" />
        </mxCell>
        <mxCell id="cdYikMtL8e22yngnOZnh-34" value="targtype1" style="shape=ellipse;whiteSpace=wrap;html=1;fillColor=#fff2cc;strokeColor=#d6b656;" vertex="1" parent="1">
          <mxGeometry x="880" y="660" width="50" height="30" as="geometry" />
        </mxCell>
        <mxCell id="cdYikMtL8e22yngnOZnh-35" value="" style="edgeStyle=entityRelationEdgeStyle;rounded=0;html=1;" edge="1" parent="1" source="cdYikMtL8e22yngnOZnh-32" target="cdYikMtL8e22yngnOZnh-34">
          <mxGeometry relative="1" as="geometry" />
        </mxCell>
        <mxCell id="cdYikMtL8e22yngnOZnh-36" value="targsubtype1" style="shape=ellipse;whiteSpace=wrap;html=1;fillColor=#fff2cc;strokeColor=#d6b656;" vertex="1" parent="1">
          <mxGeometry x="860" y="700" width="50" height="40" as="geometry" />
        </mxCell>
        <mxCell id="cdYikMtL8e22yngnOZnh-37" value="" style="edgeStyle=entityRelationEdgeStyle;rounded=0;html=1;entryX=0;entryY=0.5;entryDx=0;entryDy=0;" edge="1" parent="1" target="cdYikMtL8e22yngnOZnh-36">
          <mxGeometry relative="1" as="geometry">
            <mxPoint x="740" y="620" as="sourcePoint" />
            <mxPoint x="850" y="740" as="targetPoint" />
          </mxGeometry>
        </mxCell>
        <mxCell id="cdYikMtL8e22yngnOZnh-38" value="nationality1" style="shape=ellipse;whiteSpace=wrap;html=1;fillColor=#fff2cc;strokeColor=#d6b656;" vertex="1" parent="1">
          <mxGeometry x="855" y="740" width="60" height="45" as="geometry" />
        </mxCell>
        <mxCell id="cdYikMtL8e22yngnOZnh-39" value="" style="edgeStyle=entityRelationEdgeStyle;rounded=0;html=1;exitX=1;exitY=0.5;exitDx=0;exitDy=0;" edge="1" parent="1" source="cdYikMtL8e22yngnOZnh-32" target="cdYikMtL8e22yngnOZnh-38">
          <mxGeometry relative="1" as="geometry">
            <Array as="points">
              <mxPoint x="770" y="750" />
            </Array>
          </mxGeometry>
        </mxCell>
        <mxCell id="cdYikMtL8e22yngnOZnh-40" value="terroristgroups" style="shape=ellipse;whiteSpace=wrap;html=1;fillColor=#d1c5d7;strokeColor=#9673a6;" vertex="1" parent="1">
          <mxGeometry x="490" y="610" width="60" height="60" as="geometry" />
        </mxCell>
        <mxCell id="cdYikMtL8e22yngnOZnh-41" value="" style="edgeStyle=entityRelationEdgeStyle;rounded=0;html=1;" edge="1" parent="1" source="cdYikMtL8e22yngnOZnh-1" target="cdYikMtL8e22yngnOZnh-40">
          <mxGeometry relative="1" as="geometry" />
        </mxCell>
        <mxCell id="cdYikMtL8e22yngnOZnh-43" value="group_name" style="shape=ellipse;whiteSpace=wrap;html=1;fillColor=#fff2cc;strokeColor=#d6b656;" vertex="1" parent="1">
          <mxGeometry x="585" y="785" width="80" height="30" as="geometry" />
        </mxCell>
        <mxCell id="cdYikMtL8e22yngnOZnh-44" value="uncertainty1" style="shape=ellipse;whiteSpace=wrap;html=1;fillColor=#fff2cc;strokeColor=#d6b656;" vertex="1" parent="1">
          <mxGeometry x="500" y="790" width="70" height="30" as="geometry" />
        </mxCell>
        <mxCell id="cdYikMtL8e22yngnOZnh-45" value="unknown_group" style="shape=ellipse;whiteSpace=wrap;html=1;fillColor=#fff2cc;strokeColor=#d6b656;" vertex="1" parent="1">
          <mxGeometry x="680" y="740" width="90" height="40" as="geometry" />
        </mxCell>
        <mxCell id="cdYikMtL8e22yngnOZnh-46" value="Property" style="shape=ellipse;whiteSpace=wrap;html=1;fillColor=#d1c5d7;strokeColor=#9673a6;" vertex="1" parent="1">
          <mxGeometry x="330" y="535" width="50" height="50" as="geometry" />
        </mxCell>
        <mxCell id="cdYikMtL8e22yngnOZnh-47" value="" style="edgeStyle=entityRelationEdgeStyle;rounded=0;html=1;" edge="1" parent="1" source="cdYikMtL8e22yngnOZnh-1" target="cdYikMtL8e22yngnOZnh-46">
          <mxGeometry relative="1" as="geometry" />
        </mxCell>
        <mxCell id="cdYikMtL8e22yngnOZnh-48" value="extent" style="shape=ellipse;whiteSpace=wrap;html=1;fillColor=#fff2cc;strokeColor=#d6b656;" vertex="1" parent="1">
          <mxGeometry x="117.5" y="740" width="60" height="40" as="geometry" />
        </mxCell>
        <mxCell id="cdYikMtL8e22yngnOZnh-49" value="" style="edgeStyle=entityRelationEdgeStyle;rounded=0;html=1;" edge="1" parent="1" source="cdYikMtL8e22yngnOZnh-46" target="cdYikMtL8e22yngnOZnh-48">
          <mxGeometry relative="1" as="geometry" />
        </mxCell>
        <mxCell id="cdYikMtL8e22yngnOZnh-50" value="property" style="shape=ellipse;whiteSpace=wrap;html=1;fillColor=#fff2cc;strokeColor=#d6b656;" vertex="1" parent="1">
          <mxGeometry x="107.5" y="680" width="50" height="50" as="geometry" />
        </mxCell>
        <mxCell id="cdYikMtL8e22yngnOZnh-51" value="" style="edgeStyle=entityRelationEdgeStyle;rounded=0;html=1;" edge="1" parent="1" source="cdYikMtL8e22yngnOZnh-46" target="cdYikMtL8e22yngnOZnh-50">
          <mxGeometry relative="1" as="geometry" />
        </mxCell>
        <mxCell id="cdYikMtL8e22yngnOZnh-52" value="propvalue_category" style="shape=ellipse;whiteSpace=wrap;html=1;fillColor=#fff2cc;strokeColor=#d6b656;" vertex="1" parent="1">
          <mxGeometry x="85" y="615" width="90" height="50" as="geometry" />
        </mxCell>
        <mxCell id="cdYikMtL8e22yngnOZnh-53" value="" style="edgeStyle=entityRelationEdgeStyle;rounded=0;html=1;" edge="1" parent="1" source="cdYikMtL8e22yngnOZnh-46" target="cdYikMtL8e22yngnOZnh-52">
          <mxGeometry relative="1" as="geometry" />
        </mxCell>
        <mxCell id="cdYikMtL8e22yngnOZnh-66" value="casualties" style="shape=ellipse;whiteSpace=wrap;html=1;fillColor=#d1c5d7;strokeColor=#9673a6;" vertex="1" parent="1">
          <mxGeometry x="340" y="445" width="50" height="50" as="geometry" />
        </mxCell>
        <mxCell id="cdYikMtL8e22yngnOZnh-67" value="" style="edgeStyle=entityRelationEdgeStyle;rounded=0;html=1;" edge="1" parent="1" source="cdYikMtL8e22yngnOZnh-1" target="cdYikMtL8e22yngnOZnh-66">
          <mxGeometry relative="1" as="geometry" />
        </mxCell>
        <mxCell id="cdYikMtL8e22yngnOZnh-68" value="nkill" style="shape=ellipse;whiteSpace=wrap;html=1;fillColor=#fff2cc;strokeColor=#d6b656;" vertex="1" parent="1">
          <mxGeometry x="110" y="390" width="50" height="40" as="geometry" />
        </mxCell>
        <mxCell id="cdYikMtL8e22yngnOZnh-69" value="" style="edgeStyle=entityRelationEdgeStyle;rounded=0;html=1;" edge="1" parent="1" source="cdYikMtL8e22yngnOZnh-66" target="cdYikMtL8e22yngnOZnh-68">
          <mxGeometry relative="1" as="geometry" />
        </mxCell>
        <mxCell id="cdYikMtL8e22yngnOZnh-70" value="nwound" style="shape=ellipse;whiteSpace=wrap;html=1;fillColor=#fff2cc;strokeColor=#d6b656;" vertex="1" parent="1">
          <mxGeometry x="105" y="325" width="55" height="40" as="geometry" />
        </mxCell>
        <mxCell id="cdYikMtL8e22yngnOZnh-71" value="" style="edgeStyle=entityRelationEdgeStyle;rounded=0;html=1;" edge="1" parent="1" source="cdYikMtL8e22yngnOZnh-66" target="cdYikMtL8e22yngnOZnh-70">
          <mxGeometry relative="1" as="geometry" />
        </mxCell>
        <mxCell id="cdYikMtL8e22yngnOZnh-72" value="nkillus" style="shape=ellipse;whiteSpace=wrap;html=1;fillColor=#fff2cc;strokeColor=#d6b656;" vertex="1" parent="1">
          <mxGeometry x="90" y="250" width="50" height="40" as="geometry" />
        </mxCell>
        <mxCell id="cdYikMtL8e22yngnOZnh-73" value="" style="edgeStyle=entityRelationEdgeStyle;rounded=0;html=1;" edge="1" parent="1" source="cdYikMtL8e22yngnOZnh-66" target="cdYikMtL8e22yngnOZnh-72">
          <mxGeometry relative="1" as="geometry" />
        </mxCell>
        <mxCell id="cdYikMtL8e22yngnOZnh-74" value="nwoundus" style="shape=ellipse;whiteSpace=wrap;html=1;fillColor=#fff2cc;strokeColor=#d6b656;" vertex="1" parent="1">
          <mxGeometry x="70" y="170" width="50" height="40" as="geometry" />
        </mxCell>
        <mxCell id="cdYikMtL8e22yngnOZnh-75" value="" style="edgeStyle=entityRelationEdgeStyle;rounded=0;html=1;" edge="1" parent="1" source="cdYikMtL8e22yngnOZnh-66" target="cdYikMtL8e22yngnOZnh-74">
          <mxGeometry relative="1" as="geometry" />
        </mxCell>
        <mxCell id="cdYikMtL8e22yngnOZnh-76" value="nkillter" style="shape=ellipse;whiteSpace=wrap;html=1;fillColor=#fff2cc;strokeColor=#d6b656;" vertex="1" parent="1">
          <mxGeometry x="60" y="105" width="50" height="50" as="geometry" />
        </mxCell>
        <mxCell id="cdYikMtL8e22yngnOZnh-77" value="" style="edgeStyle=entityRelationEdgeStyle;rounded=0;html=1;" edge="1" parent="1" source="cdYikMtL8e22yngnOZnh-66" target="cdYikMtL8e22yngnOZnh-76">
          <mxGeometry relative="1" as="geometry" />
        </mxCell>
        <mxCell id="cdYikMtL8e22yngnOZnh-78" value="nwoundter" style="shape=ellipse;whiteSpace=wrap;html=1;fillColor=#fff2cc;strokeColor=#d6b656;" vertex="1" parent="1">
          <mxGeometry x="120" y="455" width="55" height="40" as="geometry" />
        </mxCell>
        <mxCell id="cdYikMtL8e22yngnOZnh-79" value="" style="edgeStyle=entityRelationEdgeStyle;rounded=0;html=1;" edge="1" parent="1" source="cdYikMtL8e22yngnOZnh-66" target="cdYikMtL8e22yngnOZnh-78">
          <mxGeometry relative="1" as="geometry" />
        </mxCell>
        <mxCell id="cdYikMtL8e22yngnOZnh-87" value="" style="edgeStyle=entityRelationEdgeStyle;rounded=0;html=1;exitX=0.75;exitY=0.5;exitDx=0;exitDy=0;exitPerimeter=0;" edge="1" parent="1">
          <mxGeometry relative="1" as="geometry">
            <mxPoint x="770" y="520" as="sourcePoint" />
            <mxPoint x="970" y="560" as="targetPoint" />
            <Array as="points">
              <mxPoint x="800" y="550" />
            </Array>
          </mxGeometry>
        </mxCell>
        <mxCell id="cdYikMtL8e22yngnOZnh-88" value="weapsubtype1" style="shape=ellipse;whiteSpace=wrap;html=1;fillColor=#fff2cc;strokeColor=#d6b656;" vertex="1" parent="1">
          <mxGeometry x="960" y="540" width="80" height="30" as="geometry" />
        </mxCell>
        <mxCell id="cdYikMtL8e22yngnOZnh-89" value="" style="edgeStyle=entityRelationEdgeStyle;rounded=0;html=1;entryX=0.144;entryY=0.733;entryDx=0;entryDy=0;entryPerimeter=0;exitX=1;exitY=0.5;exitDx=0;exitDy=0;" edge="1" parent="1" source="cdYikMtL8e22yngnOZnh-7" target="cdYikMtL8e22yngnOZnh-15">
          <mxGeometry relative="1" as="geometry">
            <mxPoint x="890" y="380" as="sourcePoint" />
            <mxPoint x="1170" y="100" as="targetPoint" />
            <Array as="points">
              <mxPoint x="750" y="350" />
            </Array>
          </mxGeometry>
        </mxCell>
        <mxCell id="cdYikMtL8e22yngnOZnh-90" value="property_id" style="shape=ellipse;whiteSpace=wrap;html=1;fillColor=#fff2cc;strokeColor=#d6b656;" vertex="1" parent="1">
          <mxGeometry x="210" y="760" width="50" height="40" as="geometry" />
        </mxCell>
        <mxCell id="cdYikMtL8e22yngnOZnh-91" value="" style="edgeStyle=entityRelationEdgeStyle;rounded=0;html=1;entryX=0.794;entryY=0.122;entryDx=0;entryDy=0;entryPerimeter=0;exitX=0;exitY=0.5;exitDx=0;exitDy=0;" edge="1" parent="1" source="cdYikMtL8e22yngnOZnh-46" target="cdYikMtL8e22yngnOZnh-90">
          <mxGeometry relative="1" as="geometry">
            <mxPoint x="330" y="600" as="sourcePoint" />
            <mxPoint x="310" y="960" as="targetPoint" />
            <Array as="points">
              <mxPoint x="300" y="700" />
              <mxPoint x="310" y="690" />
              <mxPoint x="300" y="710" />
              <mxPoint x="280" y="770" />
              <mxPoint x="310" y="700" />
              <mxPoint x="290" y="700" />
              <mxPoint x="300" y="710" />
              <mxPoint x="310" y="700" />
              <mxPoint x="310" y="710" />
              <mxPoint x="300" y="710" />
              <mxPoint x="300" y="710" />
            </Array>
          </mxGeometry>
        </mxCell>
        <mxCell id="cdYikMtL8e22yngnOZnh-95" value="month" style="shape=ellipse;whiteSpace=wrap;html=1;fillColor=#fff2cc;strokeColor=#d6b656;" vertex="1" parent="1">
          <mxGeometry x="360" y="190" width="40" height="40" as="geometry" />
        </mxCell>
        <mxCell id="cdYikMtL8e22yngnOZnh-96" value="day" style="shape=ellipse;whiteSpace=wrap;html=1;fillColor=#fff2cc;strokeColor=#d6b656;" vertex="1" parent="1">
          <mxGeometry x="430" y="160" width="40" height="40" as="geometry" />
        </mxCell>
        <mxCell id="cdYikMtL8e22yngnOZnh-97" value="extended" style="shape=ellipse;whiteSpace=wrap;html=1;fillColor=#fff2cc;strokeColor=#d6b656;" vertex="1" parent="1">
          <mxGeometry x="500" y="160" width="40" height="40" as="geometry" />
        </mxCell>
        <mxCell id="cdYikMtL8e22yngnOZnh-98" value="high_impact" style="shape=ellipse;whiteSpace=wrap;html=1;fillColor=#fff2cc;strokeColor=#d6b656;" vertex="1" parent="1">
          <mxGeometry x="540" y="220" width="70" height="40" as="geometry" />
        </mxCell>
        <mxCell id="cdYikMtL8e22yngnOZnh-100" value="" style="edgeStyle=entityRelationEdgeStyle;rounded=0;html=1;entryX=0.717;entryY=0.967;entryDx=0;entryDy=0;exitX=0.5;exitY=0;exitDx=0;exitDy=0;entryPerimeter=0;" edge="1" parent="1" source="cdYikMtL8e22yngnOZnh-1" target="cdYikMtL8e22yngnOZnh-95">
          <mxGeometry relative="1" as="geometry">
            <mxPoint x="590" y="470" as="sourcePoint" />
            <mxPoint x="470" y="210" as="targetPoint" />
            <Array as="points">
              <mxPoint x="590" y="470" />
              <mxPoint x="490" y="380" />
              <mxPoint x="590" y="500" />
            </Array>
          </mxGeometry>
        </mxCell>
        <mxCell id="cdYikMtL8e22yngnOZnh-103" value="" style="endArrow=classic;html=1;rounded=0;entryX=0.5;entryY=1;entryDx=0;entryDy=0;" edge="1" parent="1" target="cdYikMtL8e22yngnOZnh-96">
          <mxGeometry width="50" height="50" relative="1" as="geometry">
            <mxPoint x="470" y="450" as="sourcePoint" />
            <mxPoint x="520" y="280" as="targetPoint" />
          </mxGeometry>
        </mxCell>
        <mxCell id="cdYikMtL8e22yngnOZnh-104" value="" style="endArrow=classic;html=1;rounded=0;entryX=0.2;entryY=0.9;entryDx=0;entryDy=0;entryPerimeter=0;" edge="1" parent="1" target="cdYikMtL8e22yngnOZnh-97">
          <mxGeometry width="50" height="50" relative="1" as="geometry">
            <mxPoint x="470" y="450" as="sourcePoint" />
            <mxPoint x="520" y="280" as="targetPoint" />
          </mxGeometry>
        </mxCell>
        <mxCell id="cdYikMtL8e22yngnOZnh-105" value="" style="endArrow=classic;html=1;rounded=0;entryX=0.267;entryY=0.883;entryDx=0;entryDy=0;entryPerimeter=0;" edge="1" parent="1" target="cdYikMtL8e22yngnOZnh-98">
          <mxGeometry width="50" height="50" relative="1" as="geometry">
            <mxPoint x="470" y="450" as="sourcePoint" />
            <mxPoint x="520" y="400" as="targetPoint" />
          </mxGeometry>
        </mxCell>
        <mxCell id="cdYikMtL8e22yngnOZnh-106" value="" style="endArrow=classic;html=1;rounded=0;exitX=0.5;exitY=1;exitDx=0;exitDy=0;entryX=0.381;entryY=0.144;entryDx=0;entryDy=0;entryPerimeter=0;" edge="1" parent="1" source="cdYikMtL8e22yngnOZnh-40" target="cdYikMtL8e22yngnOZnh-44">
          <mxGeometry width="50" height="50" relative="1" as="geometry">
            <mxPoint x="470" y="740" as="sourcePoint" />
            <mxPoint x="520" y="690" as="targetPoint" />
          </mxGeometry>
        </mxCell>
        <mxCell id="cdYikMtL8e22yngnOZnh-107" value="" style="endArrow=classic;html=1;rounded=0;entryX=0.217;entryY=0.111;entryDx=0;entryDy=0;entryPerimeter=0;" edge="1" parent="1" target="cdYikMtL8e22yngnOZnh-43">
          <mxGeometry width="50" height="50" relative="1" as="geometry">
            <mxPoint x="520" y="670" as="sourcePoint" />
            <mxPoint x="520" y="690" as="targetPoint" />
          </mxGeometry>
        </mxCell>
        <mxCell id="cdYikMtL8e22yngnOZnh-108" value="" style="endArrow=classic;html=1;rounded=0;entryX=0;entryY=0.5;entryDx=0;entryDy=0;exitX=0.5;exitY=1;exitDx=0;exitDy=0;" edge="1" parent="1" source="cdYikMtL8e22yngnOZnh-40" target="cdYikMtL8e22yngnOZnh-45">
          <mxGeometry width="50" height="50" relative="1" as="geometry">
            <mxPoint x="470" y="740" as="sourcePoint" />
            <mxPoint x="520" y="690" as="targetPoint" />
          </mxGeometry>
        </mxCell>
      </root>
    </mxGraphModel>
  </diagram>
</mxfile>
